<svg width="1299" height="220" viewBox="0 0 1299 220" fill="none" xmlns="http://www.w3.org/2000/svg">
<path d="M52.7547 56.8028L55.9029 53.9917C56.0819 53.8333 56.2917 53.7135 56.519 53.6396C56.7464 53.5658 56.9865 53.5395 57.2245 53.5624C57.4624 53.5854 57.6931 53.657 57.9022 53.7729C58.1113 53.8888 58.2943 54.0465 58.4398 54.2361L60.5487 56.9861C61.4453 58.1472 61.1702 58.7482 59.7235 58.7889L52.3879 58.9722C51.2265 59.013 50.6254 59.6037 50.5846 60.7445L50.4318 64.6556C50.3707 66.1426 51.0838 66.9778 52.5713 67.1611C54.7516 67.426 56.6976 68.2306 58.4092 69.575C59.3261 70.288 59.9985 70.1047 60.4265 69.025C60.5487 68.7195 60.7932 68.5056 61.16 68.3834C61.3434 68.3426 61.5268 68.3223 61.7102 68.3223L74.7613 68.9639C74.9775 68.9773 75.1941 68.9446 75.3967 68.868C75.5994 68.7913 75.7834 68.6725 75.9366 68.5194C76.0897 68.3662 76.2086 68.1823 76.2853 67.9797C76.3619 67.7772 76.3946 67.5606 76.3812 67.3445L75.8311 58.6972C75.7496 57.3324 75.0364 56.7722 73.6915 57.0167C72.5708 57.2204 71.5418 57.088 70.6045 56.6195C69.5042 56.0898 69.5653 55.9065 70.7879 56.0695C74.7409 56.5787 76.5952 54.9695 76.3507 51.2417C76.1265 47.8195 75.8413 44.4584 75.4949 41.1584C75.3318 39.7121 75.9533 39.1824 77.3593 39.5695L80.9048 40.5778C81.9236 40.863 82.1987 41.4741 81.7301 42.4111C79.7128 46.5667 79.3766 50.8343 80.7214 55.2139C80.9659 56.0287 80.9863 56.8537 80.7825 57.6889C79.9267 60.9074 79.6517 64.1158 79.9573 67.3139C80.0388 68.2102 80.5278 68.7602 81.4244 68.9639C85.9684 70.0435 89.3101 68.9537 91.4496 65.6945C91.7211 65.2863 92.1211 64.9805 92.5862 64.8255C93.0514 64.6705 93.5549 64.6752 94.0171 64.8389C95.8917 65.4908 97.4505 66.825 98.6935 68.8417C99.4474 70.0639 99.1112 70.6852 97.6848 70.7056L82.647 70.9195C82.3258 70.9261 82.0117 71.0188 81.7382 71.1876C81.4647 71.3563 81.2423 71.5947 81.0946 71.8773C80.947 72.1599 80.8798 72.476 80.9002 72.7917C80.9206 73.1074 81.0279 73.4108 81.2105 73.6695C86.814 81.9195 93.4465 88.438 101.108 93.225C102.066 93.8158 101.994 94.213 100.894 94.4167L95.0563 95.5472C94.1393 95.7306 93.3854 95.476 92.7945 94.7834C88.7803 90.0167 85.1737 84.7 81.9746 78.8334C80.2833 75.7574 79.4988 75.9713 79.6211 79.475L80.3852 100.772C80.426 102.3 79.6924 103.094 78.1845 103.156L77.237 103.217C77.0181 103.229 76.799 103.197 76.5933 103.121C76.3877 103.045 76.2 102.927 76.0422 102.775C75.8843 102.622 75.7596 102.439 75.6759 102.237C75.5922 102.034 75.5514 101.816 75.556 101.597L76.1978 80.3C76.2386 78.6093 75.719 78.426 74.639 79.75C68.8317 86.8084 65.3474 92.0639 57.0643 96.8611C54.4765 98.3685 54.2524 98.063 56.3919 95.9445C63.5441 88.9167 69.3819 82.1945 73.9666 72.7834C74.0489 72.6119 74.0866 72.4224 74.0762 72.2325C74.0657 72.0425 74.0075 71.8583 73.907 71.6969C73.8064 71.5354 73.6667 71.4019 73.5008 71.3087C73.3349 71.2156 73.1482 71.1658 72.958 71.1639L60.8238 71.0417C59.4178 71.0213 58.9186 71.6935 59.3261 73.0584C59.591 73.9547 58.939 74.3315 57.37 74.1889C57.059 74.16 56.7606 74.0588 56.5 73.894C56.2393 73.7291 56.0241 73.5054 55.8723 73.2417C54.9758 71.7547 53.9264 70.451 52.7241 69.3306C51.257 67.9454 50.5337 68.2611 50.5541 70.2778L51.0125 101.536C51.0209 101.975 50.8815 102.405 50.616 102.759C50.3506 103.112 49.9741 103.37 49.5454 103.492L48.5368 103.797C48.2948 103.869 48.0394 103.883 47.791 103.838C47.5427 103.793 47.3082 103.691 47.1063 103.54C46.9045 103.388 46.7408 103.192 46.6283 102.966C46.5158 102.74 46.4576 102.491 46.4584 102.239L46.7029 74.7695C46.7233 72.1213 46.0101 71.8972 44.5634 74.0972C42.2405 77.6213 39.5202 80.575 36.4026 82.9584C32.8978 85.6676 32.5311 85.301 35.3023 81.8584C39.9889 76.0732 43.6974 69.5445 46.4278 62.2722C47.4263 59.5834 46.5399 58.5445 43.7687 59.1556C41.5477 59.6445 39.2859 59.6852 36.9833 59.2778C36.8611 59.2574 36.7999 59.1861 36.7999 59.0639L36.6777 57.2917C36.6369 56.6602 36.9426 56.375 37.5946 56.4361L44.38 57.0778C45.9286 57.2204 46.7029 56.5074 46.7029 54.9389L46.5806 41.3111C46.5603 39.7426 47.3142 39.1519 48.8424 39.5389L51.9906 40.3639C53.0094 40.6287 53.2743 41.2297 52.7853 42.1667C50.6458 46.3426 50.0141 51.0074 50.8903 56.1611C51.1144 57.5056 51.7359 57.7195 52.7547 56.8028Z" fill="#29251C" fill-opacity="0.996"/>
<path d="M155.819 56.8639C155.578 56.8268 155.332 56.8433 155.099 56.9124C154.866 56.9814 154.652 57.1012 154.473 57.2627C154.294 57.4242 154.154 57.6233 154.064 57.8452C153.974 58.0671 153.937 58.3061 153.954 58.5444C154.81 71.9889 158.05 86.6555 169.023 95.425C169.44 95.7589 169.93 95.9904 170.454 96.1009C170.977 96.2113 171.519 96.1977 172.036 96.061C172.553 95.9244 173.031 95.6685 173.431 95.314C173.831 94.9594 174.143 94.5161 174.341 94.0194L177.764 85.4028C177.887 85.1176 178.009 84.9953 178.131 85.0361L178.865 85.2805C179.048 85.3416 179.119 85.4639 179.079 85.6472C178.202 91.3102 178.121 96.4028 178.834 100.925C178.878 101.216 178.854 101.513 178.765 101.794C178.676 102.074 178.524 102.33 178.32 102.543C178.116 102.755 177.867 102.918 177.59 103.019C177.314 103.12 177.018 103.156 176.725 103.125C157.469 101.047 151.417 74.0972 149.645 59.0028C149.502 57.7602 148.789 57.1287 147.505 57.1083C137.602 56.9454 126.976 57.2102 115.626 57.9028C115.428 57.9091 115.234 57.8485 115.077 57.7314C114.921 57.6143 114.813 57.448 114.77 57.2611L114.404 55.7028C114.22 54.9287 114.526 54.5518 115.321 54.5722L147.016 55.4889C148.606 55.5296 149.329 54.7555 149.186 53.1666L148.208 41.8916C148.086 40.5879 148.677 40.0278 149.981 40.2111L153.863 40.7C154.104 40.7325 154.334 40.8221 154.533 40.9614C154.733 41.1008 154.896 41.2857 155.01 41.501C155.124 41.7162 155.184 41.9554 155.187 42.1988C155.189 42.4421 155.133 42.6825 155.024 42.9C153.516 45.9555 153.017 49.4185 153.526 53.2889C153.669 54.3481 154.27 55.0204 155.33 55.3055C162.523 57.2815 167.627 56.1203 170.643 51.8222C171.356 50.8037 172.263 50.5898 173.363 51.1805C175.115 52.1176 176.664 53.3398 178.009 54.8472C179.068 56.0491 178.803 56.7315 177.214 56.8944C169.308 57.7907 162.176 57.7805 155.819 56.8639Z" fill="#29251C" fill-opacity="0.996"/>
<path d="M308.062 67.6805H283.916C282.978 67.6805 282.52 68.149 282.54 69.0861L282.754 76.8166C282.836 79.7703 281.409 81.3898 278.475 81.675L276.55 81.8583C273.595 82.1435 272.199 80.8092 272.362 77.8555L272.882 69.3916C272.963 68.1287 272.372 67.5278 271.109 67.5889L232.628 69.025C230.998 69.0861 229.663 68.4852 228.624 67.2222L225.445 63.3111C224.508 62.1703 224.773 61.6305 226.24 61.6916L271.201 63.7083C271.535 63.7234 271.869 63.6661 272.179 63.5403C272.489 63.4145 272.768 63.2231 272.998 62.9794C273.227 62.7356 273.401 62.4452 273.507 62.128C273.614 61.8108 273.651 61.4744 273.615 61.1416L271.629 42.5333C271.606 42.3494 271.623 42.1629 271.678 41.9866C271.733 41.8103 271.825 41.6484 271.947 41.512C272.069 41.3755 272.218 41.2678 272.385 41.1962C272.552 41.1246 272.732 41.0908 272.912 41.0972C278.19 41.1787 283.202 42.3805 287.95 44.7027C288.247 44.8513 288.497 45.0787 288.672 45.3601C288.848 45.6415 288.943 45.9659 288.946 46.2976C288.949 46.6293 288.861 46.9554 288.69 47.2401C288.52 47.5248 288.275 47.7569 287.981 47.9111C283.009 50.4166 281.134 55.0509 282.357 61.8139C282.581 62.9546 283.264 63.525 284.405 63.525L308.704 63.5861C309.702 63.5861 310.211 63.087 310.232 62.0889C310.415 55.4685 309.773 49.0722 308.306 42.9C308.021 41.7185 308.479 41.1379 309.682 41.1583C315.326 41.199 320.502 42.4416 325.209 44.8861C325.463 45.0237 325.675 45.2283 325.822 45.4776C325.969 45.7269 326.045 46.0116 326.042 46.3009C326.038 46.5901 325.956 46.8731 325.804 47.1192C325.652 47.3652 325.435 47.5651 325.178 47.6972C319.86 50.325 317.954 55.0916 319.462 61.9972C319.707 63.0768 320.389 63.6166 321.51 63.6166L341.958 63.525C342.558 63.5164 343.147 63.3746 343.681 63.1101C344.215 62.8457 344.682 62.4653 345.045 61.9972L352.136 52.7694C353.603 50.8953 355.325 50.6305 357.301 51.975C362.559 55.5602 366.868 59.5527 370.23 63.9527C370.493 64.2981 370.654 64.7102 370.694 65.1421C370.734 65.5741 370.653 66.0088 370.459 66.3969C370.265 66.785 369.966 67.1109 369.596 67.3378C369.226 67.5647 368.8 67.6834 368.366 67.6805H321.082C319.941 67.6805 319.381 68.2407 319.401 69.3611L319.585 78.9555C319.646 82.3778 317.965 84.0787 314.541 84.0583H313.563C310.65 84.0583 309.264 82.6018 309.407 79.6889L309.896 69.6361C309.957 68.3324 309.345 67.6805 308.062 67.6805Z" fill="#504639"/>
<path d="M487.935 78.4055C487.746 78.5875 487.615 78.8221 487.56 79.0789C487.506 79.3357 487.529 79.6031 487.628 79.8464C487.726 80.0898 487.896 80.298 488.114 80.4442C488.332 80.5904 488.589 80.6679 488.852 80.6667L502.545 80.5444C504.46 80.5444 506.019 79.8111 507.221 78.3444L512.081 72.4472C512.711 71.6832 513.59 71.1643 514.567 70.9802C515.543 70.796 516.556 70.9583 517.43 71.4389C521.77 73.8426 525.723 77.1222 529.289 81.2778C529.512 81.5348 529.656 81.8507 529.705 82.1875C529.753 82.5243 529.703 82.868 529.561 83.1773C529.419 83.4866 529.192 83.7486 528.905 83.9319C528.618 84.1153 528.285 84.2122 527.944 84.2111L485.765 84.6389C483.544 84.6592 483.065 85.5861 484.328 87.4194L495.79 104.011C496.789 105.478 498.184 106.201 499.977 106.181L516.513 105.967C517.736 105.967 518.765 105.508 519.6 104.592L526.691 96.9528C527.335 96.2498 528.192 95.7768 529.13 95.6058C530.068 95.4348 531.036 95.5752 531.887 96.0055C536.676 98.45 540.944 101.954 544.694 106.517C544.939 106.812 545.075 107.182 545.081 107.565C545.086 107.949 544.961 108.323 544.724 108.625C544.276 109.195 543.685 109.491 542.951 109.511C529.768 109.898 517.114 109.939 504.99 109.633C502.219 109.552 501.832 110.469 503.829 112.383C517.929 125.746 533.792 134.271 551.418 137.958C556.594 139.038 556.604 140.138 551.448 141.258C545.804 142.481 540.761 144.681 536.319 147.858C535.382 148.51 534.414 148.571 533.415 148.042C516.849 139.303 504.073 126.775 492.795 111.192C492.512 110.794 492.136 110.471 491.7 110.248C491.264 110.024 490.78 109.908 490.288 109.908L452.419 109.786C451.948 109.785 451.484 109.902 451.068 110.126C450.652 110.35 450.297 110.674 450.035 111.069C435.812 132.642 416.913 148.164 393.337 157.636C393.215 157.677 393.123 157.636 393.062 157.514L392.726 156.781C392.4 156.129 392.553 155.63 393.184 155.283C412.399 144.65 428.008 129.983 440.01 111.283C440.58 110.367 440.325 109.929 439.245 109.969L407.794 111.436C406.897 111.483 406.001 111.317 405.182 110.95C404.364 110.583 403.646 110.027 403.087 109.328L400.184 105.753C398.88 104.144 399.257 103.451 401.315 103.675C415.517 105.182 429.546 105.855 443.402 105.692C443.789 105.671 444.064 105.488 444.227 105.142L454.344 85.3111C454.368 85.2581 454.378 85.2002 454.373 85.142C454.368 85.0838 454.348 85.0271 454.315 84.9764C454.283 84.9257 454.238 84.8825 454.184 84.8504C454.131 84.8183 454.07 84.7982 454.008 84.7917C442.516 84.7509 431.635 85.25 421.365 86.2889C419.307 86.4926 417.504 85.9018 415.955 84.5167C414.549 83.2944 413.357 81.8991 412.379 80.3305C411.605 79.088 411.941 78.5074 413.388 78.5889L453.794 80.8805C454.976 80.9417 455.811 80.4222 456.3 79.3222C461.578 67.1815 464.38 55.1731 464.706 43.2972C464.71 43.0802 464.763 42.8669 464.859 42.6721C464.956 42.4774 465.095 42.3057 465.267 42.1691C465.439 42.0325 465.638 41.9342 465.853 41.881C466.067 41.8279 466.291 41.821 466.509 41.8611C472.663 43.0426 478.154 44.9065 482.984 47.4528C483.285 47.6102 483.535 47.8489 483.707 48.1423C483.878 48.4356 483.964 48.7721 483.954 49.1142C483.945 49.4563 483.84 49.7906 483.653 50.08C483.465 50.3693 483.202 50.6022 482.892 50.7528L477.451 53.2889C476.938 53.5307 476.477 53.8768 476.093 54.307C475.71 54.7372 475.413 55.2428 475.22 55.7944L467.457 78.4055C466.968 79.8315 467.477 80.5546 468.985 80.575L479.988 80.6361C480.42 80.6355 480.847 80.5264 481.231 80.3186C481.615 80.1108 481.944 79.8106 482.189 79.4444C489.015 69.2185 493.375 59.0129 495.27 48.8278C495.515 47.5444 496.238 47.137 497.441 47.6055C503.452 49.9889 508.648 53.0852 513.029 56.8944C513.295 57.1198 513.489 57.4186 513.586 57.7536C513.683 58.0885 513.679 58.4446 513.574 58.7773C513.47 59.11 513.27 59.4046 512.999 59.624C512.728 59.8435 512.398 59.9781 512.051 60.0111C508.688 60.3778 505.54 60.775 503.064 63.3722C498.032 68.6889 492.988 73.7 487.935 78.4055ZM465.745 84.6389C465.552 84.6332 465.36 84.6817 465.193 84.7789C465.025 84.8761 464.889 85.0181 464.798 85.1889L454.405 104.622C454.321 104.781 454.279 104.958 454.284 105.137C454.288 105.317 454.339 105.492 454.431 105.646C454.524 105.799 454.654 105.927 454.81 106.015C454.967 106.104 455.143 106.15 455.322 106.15L487.599 105.967C487.772 105.967 487.943 105.923 488.096 105.84C488.249 105.757 488.378 105.637 488.472 105.491C488.566 105.346 488.623 105.178 488.636 105.005C488.649 104.832 488.618 104.658 488.546 104.5L479.346 85.3111C479.262 85.1393 479.131 84.9941 478.97 84.8916C478.808 84.7892 478.621 84.7334 478.429 84.7305L465.745 84.6389Z" fill="#504639"/>
<path d="M159.12 43.7861C162.176 43.9083 164.744 44.7537 166.822 46.3222C167.495 46.8315 167.811 47.524 167.77 48.4C167.688 50.9055 166.537 51.5676 164.316 50.3861C162.034 49.1842 160.057 47.4528 158.386 45.1916C158.29 45.0583 158.232 44.9007 158.22 44.7365C158.208 44.5724 158.242 44.4081 158.319 44.2622C158.395 44.1162 158.51 43.9944 158.652 43.9103C158.793 43.8262 158.955 43.7832 159.12 43.7861Z" fill="#29251C" fill-opacity="0.996"/>
<path d="M60.2125 65.1139C63.8191 58.738 66.03 52.2194 66.845 45.5583C66.9877 44.3972 67.5786 44.0713 68.6178 44.5805L71.9493 46.2C72.1518 46.3035 72.3261 46.4545 72.4574 46.6401C72.5887 46.8257 72.673 47.0404 72.703 47.2657C72.7331 47.4911 72.708 47.7203 72.63 47.9338C72.5519 48.1474 72.4233 48.3388 72.255 48.4917C70.4619 50.0805 69.606 52.0361 69.6875 54.3583C69.7283 55.3565 69.3615 56.1815 68.5872 56.8333C65.4492 59.5222 63.0754 62.7204 61.4656 66.4278C61.4045 66.55 61.323 66.5806 61.2211 66.5194L60.457 66.0611C60.0495 65.837 59.968 65.5213 60.2125 65.1139Z" fill="#29251C" fill-opacity="0.996"/>
<path d="M1064.81 48.5833L1070.99 56.4056C1071.13 56.5897 1071.21 56.8185 1071.2 57.0527C1071.2 57.2869 1071.11 57.5118 1070.96 57.6889L1066.77 62.7611C1066.61 62.9618 1066.37 63.0927 1066.12 63.1268C1065.86 63.1609 1065.6 63.0956 1065.39 62.9444L1044.79 47.1778C1044.61 47.0427 1044.48 46.851 1044.42 46.6334C1044.37 46.4158 1044.38 46.1848 1044.47 45.9772C1044.56 45.7697 1044.71 45.5976 1044.91 45.4884C1045.11 45.3793 1045.33 45.3393 1045.56 45.375L1064.17 48.2167C1064.42 48.2533 1064.65 48.3843 1064.81 48.5833Z" fill="#504639"/>
<path d="M83.2888 56.5583C84.9596 55.4583 86.4166 53.9917 87.6595 52.1583C88.7395 50.5898 89.9621 50.4574 91.3273 51.7611L94.2921 54.6028C96.0241 56.2528 95.6879 57.088 93.2834 57.1083L83.4722 57.2305C83.395 57.2266 83.321 57.1984 83.2608 57.15C83.2006 57.1016 83.1573 57.0354 83.1369 56.9608C83.1166 56.8863 83.1203 56.8073 83.1476 56.735C83.1749 56.6627 83.2243 56.6009 83.2888 56.5583Z" fill="#29251C" fill-opacity="0.996"/>
<path d="M444.93 58.5445L449.057 68.6278C449.15 68.8516 449.165 69.1005 449.098 69.3337C449.031 69.5669 448.887 69.7705 448.69 69.9111L442.424 74.3722C442.199 74.533 441.921 74.6005 441.647 74.5606C441.374 74.5207 441.127 74.3766 440.957 74.1584L423.535 52.0361C423.395 51.8518 423.319 51.6271 423.317 51.3957C423.316 51.1643 423.39 50.9387 423.527 50.7528C423.665 50.5668 423.86 50.4306 424.081 50.3645C424.303 50.2983 424.541 50.306 424.758 50.3861L444.319 57.9639C444.455 58.0142 444.579 58.0916 444.684 58.1914C444.789 58.2912 444.873 58.4113 444.93 58.5445Z" fill="#504639"/>
<path d="M1047.79 57.0778L1053.08 65.3583C1053.2 65.5438 1053.25 65.764 1053.24 65.9849C1053.22 66.2059 1053.13 66.4152 1052.98 66.5805L1048.8 71.2555C1048.62 71.4424 1048.38 71.5559 1048.13 71.5729C1047.87 71.5899 1047.62 71.5092 1047.42 71.3472L1027.43 55.0916C1027.26 54.9499 1027.14 54.7543 1027.09 54.5356C1027.04 54.317 1027.06 54.0879 1027.16 53.8845C1027.25 53.6812 1027.41 53.5152 1027.61 53.4129C1027.81 53.3105 1028.04 53.2776 1028.26 53.3194L1047.12 56.6194C1047.25 56.6449 1047.39 56.6989 1047.5 56.7778C1047.62 56.8567 1047.71 56.9589 1047.79 57.0778Z" fill="#504639"/>
<path d="M654.452 97.4417C662.296 97.3398 669.449 96.1482 675.908 93.8667C682.846 91.3917 691.068 95.5778 695.897 100.039C696.242 100.362 696.506 100.762 696.667 101.207C696.827 101.651 696.88 102.126 696.82 102.593C696.76 103.059 696.59 103.503 696.323 103.888C696.056 104.273 695.7 104.588 695.286 104.806C689.744 107.739 686.28 112.577 684.894 119.319C681.012 138.233 676.122 174.442 648.828 173.403C647.719 173.358 646.648 172.989 645.747 172.343C644.845 171.697 644.153 170.802 643.754 169.767C641.512 164.002 638.324 158.369 634.187 152.869C631.334 149.081 631.803 148.612 635.593 151.464C637.284 152.727 638.945 154.041 640.575 155.406C657.814 169.706 667.136 152.808 670.926 138.233C673.779 127.396 676.081 116.804 677.834 106.456C678.506 102.565 676.876 100.813 672.943 101.2L654.879 103.003C652.597 103.227 651.191 104.459 650.662 106.7C641.431 146.361 615.084 174.808 575.595 184.433C575.289 184.515 574.983 184.505 574.678 184.403C574.413 184.281 574.189 184.097 574.005 183.853C573.955 183.782 573.92 183.701 573.904 183.616C573.887 183.531 573.889 183.445 573.91 183.363C573.93 183.28 573.969 183.205 574.022 183.142C574.076 183.079 574.143 183.029 574.219 182.997C606.923 169.288 629.032 144.273 640.545 107.953C640.614 107.722 640.623 107.476 640.57 107.24C640.518 107.005 640.405 106.788 640.244 106.611C640.082 106.434 639.879 106.304 639.652 106.234C639.426 106.164 639.186 106.156 638.955 106.211C633.148 107.556 627.392 109.318 621.686 111.497C610.561 115.775 597.204 112.108 591.397 101.872C589.196 97.9815 590.143 96.9222 594.239 98.6945C597.601 100.131 600.199 102.269 604.142 102.422C616.592 102.993 628.849 102.045 640.911 99.5806C642.073 99.3361 642.745 98.6333 642.929 97.4722C644.121 89.9556 648.094 76.1139 642.929 69.7889C642.215 68.913 641.299 68.4343 640.178 68.3528L632.628 67.8334C632.405 67.817 632.19 67.7426 632.004 67.6175C631.819 67.4924 631.669 67.321 631.57 67.1203C631.472 66.9195 631.427 66.6964 631.441 66.4731C631.455 66.2498 631.527 66.0341 631.65 65.8472C637.519 57.2611 649.806 62.3028 656.438 67.65C659.209 69.8908 659.963 72.5898 658.7 75.7472C656.153 82.0417 654.35 88.8352 653.29 96.1278C653.147 97.0241 653.535 97.462 654.452 97.4417Z" fill="#504639"/>
<path d="M963.705 67.4667C971.896 70.2574 980.281 70.8482 988.86 69.2389C996.155 67.8537 1003.07 66.1426 1009.61 64.1056C1016.25 61.9972 1023.06 62.1806 1028.75 66.3056C1029.25 66.6695 1029.63 67.176 1029.84 67.7592C1030.05 68.3423 1030.08 68.9752 1029.92 69.5752C1029.77 70.1753 1029.44 70.7148 1028.97 71.1235C1028.5 71.5322 1027.93 71.7911 1027.31 71.8667C1020.77 72.6204 1014.09 73.3741 1007.26 74.1278C995.859 75.4111 984.948 78.4361 973.425 78.1611C966.66 77.9982 962.075 74.9528 959.671 69.025C959.553 68.7184 959.524 68.3838 959.588 68.0613C959.653 67.7388 959.807 67.442 960.033 67.2066C960.259 66.9711 960.546 66.807 960.862 66.7339C961.177 66.6608 961.506 66.6818 961.81 66.7944C962.442 67.0389 963.073 67.263 963.705 67.4667Z" fill="#504639"/>
<path d="M138.458 89.0389L150.562 84.5472C150.664 84.5065 150.735 84.537 150.776 84.6389L151.173 85.5861C151.336 85.9731 151.214 86.2481 150.806 86.4111L121.739 98.2666C121.383 98.4084 120.996 98.4575 120.611 98.4095C120.227 98.3615 119.858 98.2178 119.539 97.9916C118.275 97.0954 117.256 96.0055 116.482 94.7222C115.912 93.7444 116.197 93.2454 117.338 93.225C121.189 93.1435 124.999 92.5833 128.769 91.5444C130.97 90.9333 132.05 89.487 132.009 87.2055L131.795 75.8389C131.734 72.6 130.185 71.5407 127.149 72.6611C123.828 73.9037 121.24 73.5778 119.386 71.6833C118.408 70.6648 118.622 70.1963 120.028 70.2778L137.113 71.225C138.356 71.3065 139.304 70.7972 139.956 69.6972C140.465 68.8416 141.138 68.1185 141.973 67.5278C143.073 66.7537 144.133 66.8148 145.152 67.7111C146.089 68.5259 146.792 69.4935 147.261 70.6139C147.933 72.2028 147.414 72.875 145.702 72.6305C143.338 72.3046 141.097 72.3657 138.978 72.8139C138.102 72.9851 137.314 73.4546 136.751 74.141C136.187 74.8275 135.883 75.6876 135.891 76.5722V87.2666C135.891 89.1 136.746 89.6907 138.458 89.0389Z" fill="#29251C" fill-opacity="0.996"/>
<path d="M721.235 72.9667L726.615 80.2694C726.791 80.5134 726.878 80.8103 726.861 81.1106C726.844 81.4109 726.725 81.6964 726.523 81.9194L722.611 86.4417C722.391 86.6978 722.082 86.8597 721.746 86.8938C721.41 86.928 721.074 86.8317 720.807 86.625L701.063 71.4389C700.835 71.2572 700.674 71.0051 700.606 70.7221C700.537 70.4392 700.564 70.1414 700.683 69.8756C700.802 69.6098 701.006 69.3911 701.263 69.2537C701.52 69.1163 701.815 69.0681 702.102 69.1167L720.41 72.4472C720.742 72.5081 721.037 72.6941 721.235 72.9667Z" fill="#504639"/>
<path d="M684.588 78.0389C692.321 77.3361 709.56 79.7806 707.848 91.1472C707.721 91.9685 707.367 92.7388 706.826 93.37C706.285 94.0012 705.579 94.4678 704.788 94.7164C703.997 94.9651 703.154 94.9857 702.355 94.776C701.555 94.5663 700.832 94.1347 700.268 93.5306C695.235 88.2547 689.825 83.8648 684.038 80.3611C681.858 79.0371 682.041 78.263 684.588 78.0389Z" fill="#504639"/>
<path d="M1145.5 175.144C1138.2 175.206 1129.49 168.086 1125.85 162.678C1125.35 161.938 1125.02 161.102 1124.87 160.227C1124.72 159.351 1124.76 158.458 1125 157.606L1125.42 155.956C1125.97 153.898 1126.91 153.705 1128.24 155.375C1131.74 159.755 1135.97 161.16 1140.92 159.592C1149.99 156.74 1159.19 151.8 1168.52 144.772C1194.6 125.176 1218.4 103.247 1239.92 78.9861C1240.04 78.8639 1240.17 78.8537 1240.32 78.9556L1241.05 79.5056C1241.19 79.6074 1241.21 79.7398 1241.11 79.9028C1220.71 113.738 1194.29 141.452 1161.83 163.044C1156.87 166.314 1152.69 170.072 1148.35 174.014C1147.58 174.722 1146.57 175.124 1145.5 175.144Z" fill="#504639"/>
<path d="M260.717 124.453C260.733 124.166 260.663 123.882 260.516 123.636C260.369 123.39 260.152 123.193 259.892 123.071C259.632 122.95 259.342 122.909 259.059 122.953C258.775 122.998 258.512 123.127 258.302 123.322C246.688 133.894 234.136 142.144 220.647 148.072C220.504 148.133 220.361 148.113 220.219 148.011L219.332 147.431C219.129 147.288 219.129 147.156 219.332 147.033C236.184 136.481 251.792 122.08 266.157 103.828C270.579 98.2259 274.165 92.4 276.916 86.35C277.008 86.138 277.145 85.9482 277.316 85.7928C277.488 85.6374 277.691 85.5199 277.913 85.4479C278.135 85.3759 278.371 85.351 278.604 85.3748C278.838 85.3986 279.065 85.4706 279.27 85.5861C283.325 87.9083 286.982 90.8926 290.242 94.5389C291.465 95.9037 291.271 97.0241 289.662 97.9C288.215 98.6944 286.636 99.1222 284.924 99.1833C283.552 99.2412 282.25 99.8322 281.287 100.833L270.895 111.589C269.774 112.75 269.988 113.555 271.537 114.003L274.44 114.858C276.6 115.51 276.774 116.508 274.96 117.853L271.262 120.603C270.365 121.275 269.876 122.171 269.795 123.292C268.552 143.703 268.297 164.593 269.03 185.961C269.075 187.083 268.769 188.191 268.155 189.128C267.541 190.065 266.65 190.785 265.607 191.186C264.629 191.553 263.641 191.756 262.642 191.797C259.199 191.919 257.559 190.259 257.722 186.817L260.717 124.453Z" fill="#504639"/>
<path d="M312.096 131.297C327.216 124.269 339.095 115.755 347.735 105.753C348.652 104.714 349.589 104.693 350.547 105.692L361.244 116.967C361.558 117.296 361.764 117.714 361.834 118.164C361.903 118.614 361.834 119.074 361.634 119.483C361.434 119.892 361.114 120.23 360.717 120.452C360.319 120.674 359.863 120.77 359.41 120.725C356.14 120.45 352.961 119.656 349.844 121.061C337.985 126.357 325.545 131.053 312.524 135.147C311.444 135.493 310.894 136.237 310.874 137.378C310.812 146.381 310.772 156.068 310.751 166.436C310.731 171.468 313.125 174.442 317.934 175.358C327.317 177.161 338.84 176.794 347.735 175.053C356.568 173.342 358.31 159.164 359.502 151.769C360.378 146.29 361.193 146.3 361.947 151.8C362.925 158.919 362.345 165.519 367.51 171.325C368.005 171.883 368.374 172.541 368.592 173.254C368.81 173.967 368.872 174.719 368.773 175.458C368.675 176.198 368.418 176.907 368.021 177.538C367.623 178.17 367.095 178.708 366.471 179.117C356.598 185.594 347.123 185.228 336.09 185.686C320.563 186.328 300.176 186.939 301.215 164.45C302.254 142.43 302.346 116.946 301.49 88C301.45 86.4722 302.173 85.8916 303.66 86.2583C308.001 87.3379 312.076 88.6824 315.886 90.2916C320.165 92.0842 320.196 93.9379 315.978 95.8528L313.991 96.7389C312.626 97.3703 311.913 98.4398 311.852 99.9472L310.69 130.381C310.649 131.46 311.118 131.766 312.096 131.297Z" fill="#504639"/>
<path d="M1147.09 106.486C1138.38 98.6334 1129.4 93.1945 1118 89.5278C1114.94 88.55 1115.01 87.8371 1118.21 87.3889C1129.79 85.8306 1152.93 86.2584 1158.16 99.3667C1158.79 100.962 1158.82 102.74 1158.25 104.378C1156.29 109.847 1150.76 109.817 1147.09 106.486Z" fill="#504639"/>
<path d="M1005.85 104.867C1009.32 107.25 1010.69 110.519 1009.98 114.675C1003.44 153.175 975.687 179.697 939.039 190.361C938.632 190.463 938.316 190.351 938.092 190.025C937.766 189.557 937.858 189.2 938.367 188.956C965.478 175.542 992.497 148.928 997.815 117.822C998.712 112.669 996.868 108.92 992.283 106.578C990.788 105.82 989.1 105.512 987.423 105.692C981.738 106.323 976.053 107.8 970.368 110.122C958.387 115.042 945.244 113.178 937.236 102.758C936.975 102.43 936.815 102.033 936.776 101.615C936.736 101.198 936.818 100.778 937.012 100.406C937.206 100.034 937.504 99.7269 937.869 99.5207C938.234 99.3145 938.651 99.2186 939.07 99.2445C941.607 99.3972 943.869 101.414 946.467 101.994C953.456 103.563 960.414 103.736 967.342 102.514C985.844 99.2547 1003.14 96.6778 1019.24 94.7834C1022.83 94.3556 1026.18 93.4389 1029.3 92.0334C1036.02 88.9472 1046.41 93.775 1051.95 97.5028C1052.75 98.0514 1053.33 98.8824 1053.55 99.8323C1053.78 100.782 1053.64 101.782 1053.17 102.636C1051.88 104.979 1049.79 105.824 1046.87 105.172C1033.91 102.3 1020.41 101.526 1006.37 102.85C1004.38 103.054 1004.2 103.726 1005.85 104.867Z" fill="#504639"/>
<path d="M880.875 117.242C877.513 119.462 874.018 120.572 870.391 120.572C845.909 120.481 819.898 120.083 795.966 124.178C787.041 125.706 781.02 126.154 777.902 125.522C771.606 124.239 766.41 120.705 762.314 114.919C759.176 110.479 760.114 109.328 765.126 111.467C772.034 114.42 779.746 115.52 788.264 114.767C791.157 114.522 793.949 114.319 796.639 114.156C820.194 112.75 844.004 111.507 868.068 110.428C872.123 110.244 876.209 110.906 880.325 112.414C880.798 112.588 881.213 112.89 881.525 113.286C881.836 113.683 882.031 114.158 882.088 114.658C882.145 115.159 882.062 115.666 881.848 116.122C881.634 116.578 881.297 116.966 880.875 117.242Z" fill="#504639"/>
<path d="M484.878 155.131L453.794 155.1C450.697 155.08 449.138 156.628 449.118 159.744L449.087 172.058C449.087 176.194 451.145 178.485 455.261 178.933C469.26 180.42 484.298 180.522 500.375 179.239C514.954 178.108 515.718 167.169 518.286 156.017C518.795 153.878 519.264 153.888 519.692 156.047C520.945 162.189 520.731 169.308 526.569 173.128C527.112 173.48 527.55 173.973 527.835 174.554C528.121 175.135 528.243 175.783 528.189 176.428C526.63 192.653 470.391 189.047 458.837 188.589C450.126 188.253 438.94 185.533 439.429 174.411C439.857 164.98 439.714 155.793 439.001 146.85C438.879 145.261 439.561 144.752 441.049 145.322C446.122 147.308 451.135 150.669 456.667 150.669C466.652 150.669 476.239 150.669 485.429 150.669C486.529 150.669 487.079 150.119 487.079 149.019L486.957 134.292C486.957 133.049 486.325 132.438 485.062 132.458L447.62 133.375C445.99 133.416 444.543 132.917 443.28 131.878C442.037 130.859 441.273 129.545 440.988 127.936C440.825 126.999 441.212 126.582 442.149 126.683C456.005 128.109 469.515 128.649 482.678 128.303C483.596 128.284 484.475 127.9 485.123 127.233L488.302 123.842C488.781 123.343 489.421 123.03 490.109 122.957C490.797 122.884 491.488 123.057 492.061 123.444L501.536 129.769C501.797 129.941 502.014 130.17 502.171 130.439C502.328 130.708 502.42 131.01 502.441 131.32C502.462 131.631 502.41 131.943 502.29 132.23C502.17 132.518 501.986 132.774 501.75 132.978L497.563 136.706C497.151 137.079 496.825 137.537 496.609 138.049C496.392 138.561 496.29 139.114 496.31 139.669L497.043 159.225C497.104 161.018 496.299 162.25 494.629 162.922C492.999 163.594 491.297 163.839 489.524 163.656C487.609 163.472 486.672 162.413 486.712 160.478L486.773 157.056C486.794 155.772 486.162 155.131 484.878 155.131Z" fill="#504639"/>
<path d="M68.3733 137.775C68.2934 137.649 68.1828 137.545 68.0519 137.473C67.9209 137.401 67.7739 137.363 67.6245 137.363C67.475 137.363 67.328 137.401 67.1971 137.473C67.0662 137.545 66.9556 137.649 66.8756 137.775C59.0715 150.119 48.6693 159.704 35.6691 166.528C35.3431 166.711 35.0883 166.64 34.905 166.314L34.8744 166.283C34.6706 165.937 34.7318 165.652 35.0578 165.428C46.3667 157.463 55.3935 147.614 62.1381 135.881C62.892 134.597 63.3098 133.192 63.3913 131.664C63.4524 130.442 64.0331 130.106 65.1335 130.656L69.5959 132.856C70.6962 133.385 71.0936 134.241 70.7879 135.422C70.4415 136.828 70.737 138.07 71.6743 139.15C80.2528 148.969 90.2373 155.518 101.628 158.797C102.585 159.082 102.606 159.439 101.689 159.867L95.6676 162.586C94.5265 163.116 93.4262 163.034 92.3666 162.342C82.6267 156.068 74.6289 147.879 68.3733 137.775Z" fill="#29251C" fill-opacity="0.996"/>
<path d="M124.887 166.467C121.383 169.217 117.695 172.089 113.823 175.083C113.742 175.144 113.66 175.134 113.578 175.053L113.089 174.442C112.6 173.871 112.662 173.362 113.273 172.914C122.442 166.416 129.248 158.451 133.69 149.019C133.842 148.704 133.908 148.354 133.881 148.005C133.854 147.655 133.736 147.32 133.537 147.031C133.338 146.742 133.067 146.512 132.75 146.362C132.434 146.212 132.083 146.148 131.734 146.178L117.919 147.156C117.749 147.168 117.579 147.142 117.422 147.078C117.264 147.014 117.124 146.914 117.011 146.787C116.899 146.66 116.817 146.508 116.773 146.344C116.729 146.18 116.724 146.008 116.757 145.842L116.941 144.894C117.104 144.08 117.603 143.733 118.438 143.856L125.071 144.925C126.518 145.149 127.221 144.538 127.18 143.092L126.874 133.253C126.854 132.01 127.455 131.43 128.677 131.511C130.124 131.593 131.459 131.929 132.681 132.519C133.986 133.131 134.159 133.976 133.201 135.056C130.98 137.5 130.338 140.25 131.275 143.306C131.724 144.833 132.62 145.169 133.965 144.314L135.555 143.336C136.696 142.623 137.877 142.531 139.1 143.061C140.098 143.489 140.832 144.202 141.301 145.2C141.708 146.056 141.555 146.809 140.842 147.461C137.337 150.659 134.678 154.316 132.865 158.431C132.678 158.859 132.588 159.323 132.603 159.79C132.618 160.257 132.736 160.714 132.95 161.13C133.163 161.545 133.467 161.908 133.838 162.191C134.209 162.475 134.639 162.672 135.096 162.769C138.499 163.482 141.28 165.071 143.44 167.536C144.479 168.738 144.459 169.909 143.379 171.05L142.707 171.753C142.565 171.9 142.394 172.016 142.205 172.093C142.016 172.171 141.812 172.208 141.608 172.202C141.404 172.196 141.203 172.148 141.018 172.06C140.834 171.972 140.67 171.847 140.537 171.692L134.026 163.839C131.826 161.191 130.735 161.588 130.756 165.031L130.878 193.447C130.882 193.701 130.835 193.953 130.738 194.189C130.641 194.424 130.497 194.638 130.315 194.817C130.132 194.997 129.915 195.139 129.676 195.234C129.436 195.329 129.18 195.376 128.922 195.372H127.852C127.037 195.352 126.64 194.934 126.66 194.119L127.119 167.597C127.159 165.662 126.416 165.285 124.887 166.467Z" fill="#29251C" fill-opacity="0.996"/>
<path d="M163.185 157.881C164.835 157.371 166.129 156.353 167.067 154.825C167.759 153.664 168.768 153.246 170.093 153.572C172.171 154.082 173.893 155.385 175.258 157.483C176.053 158.726 175.706 159.357 174.219 159.378L161.748 159.469C161.222 159.469 160.716 159.676 160.344 160.042C159.971 160.409 159.762 160.906 159.762 161.425L159.639 185.778C159.639 187.55 160.505 188.569 162.237 188.833C166.007 189.424 169.115 188.294 171.56 185.442C172.762 184.057 174.035 183.965 175.38 185.167L178.467 187.917C180.322 189.587 179.996 190.443 177.489 190.483L137.358 191.094C136.502 191.115 136.064 190.687 136.043 189.811L136.013 188.803C136.013 188.212 136.308 187.937 136.899 187.978L151.142 188.803C153.812 188.966 155.167 187.703 155.208 185.014L155.391 162.922C155.411 160.233 154.107 159.144 151.479 159.653C148.443 160.223 145.488 160.213 142.615 159.622C141.841 159.459 141.566 159.001 141.79 158.247L142.065 157.239C142.159 156.935 142.364 156.678 142.638 156.524C142.912 156.37 143.233 156.331 143.532 156.414C147.077 157.351 150.47 157.646 153.71 157.3C154.932 157.178 155.534 156.506 155.513 155.283L154.994 134.017C154.953 132.346 155.737 131.715 157.347 132.122L161.229 133.131C162.146 133.355 162.421 133.894 162.054 134.75C159.222 141.472 158.702 148.673 160.495 156.353C160.842 157.84 161.738 158.349 163.185 157.881Z" fill="#29251C" fill-opacity="0.996"/>
<path d="M72.6219 155.222C73.2943 153.328 74.4557 152.89 76.1062 153.908C77.5937 154.845 78.8469 156.057 79.8657 157.544C80.6604 158.726 80.3445 159.347 78.9182 159.408L55.0777 160.294C54.7953 160.3 54.5204 160.209 54.3021 160.035C54.0838 159.862 53.9362 159.618 53.8857 159.347L53.6412 158.247C53.4374 157.249 53.8551 156.791 54.8943 156.872L68.4651 157.942C69.3573 158.011 70.2483 157.782 70.9999 157.291C71.7514 156.799 72.3216 156.072 72.6219 155.222Z" fill="#29251C" fill-opacity="0.996"/>
<path d="M79.4988 183.15C78.1336 181.582 76.6155 180.217 74.9447 179.056C74.6594 178.852 74.5983 178.587 74.7613 178.261C74.965 177.874 75.2605 177.762 75.6477 177.925C81.8829 180.512 86.9668 184.138 90.8995 188.803C91.9183 190.025 92.0507 191.339 91.2968 192.744C91.0727 193.172 90.7772 193.549 90.4104 193.875C90.2187 194.042 89.9934 194.166 89.7492 194.238C89.505 194.31 89.2475 194.33 88.9935 194.295C88.7396 194.261 88.4949 194.173 88.2755 194.037C88.0562 193.902 87.8671 193.721 87.7207 193.508L84.053 187.978C83.2175 186.715 82.0663 186.297 80.5991 186.725C69.5143 189.984 58.0322 192.531 46.1527 194.364C44.8894 194.568 43.9215 194.13 43.2491 193.05L41.3541 190.117C40.6816 189.078 40.9567 188.558 42.1793 188.558L52.877 188.619C54.5886 188.619 55.6685 187.805 56.1168 186.175L59.1122 174.961C59.7031 172.761 58.8575 171.712 56.5753 171.814L42.271 172.425C42.0405 172.433 41.8148 172.38 41.62 172.272C41.4252 172.164 41.2694 172.005 41.1707 171.814L40.4371 170.378C40.3671 170.245 40.3335 170.095 40.3396 169.945C40.3457 169.795 40.3913 169.649 40.4719 169.522C40.5525 169.395 40.6652 169.291 40.7986 169.221C40.932 169.152 41.0815 169.119 41.2318 169.125L80.4769 170.011C81.6587 170.052 82.7183 169.695 83.6556 168.942C84.5726 168.229 85.3163 167.373 85.8868 166.375C86.5389 165.275 87.4456 164.98 88.6071 165.489C90.4817 166.283 92.1017 167.607 93.4669 169.461C94.4857 170.826 94.1393 171.519 92.4277 171.539L69.3819 171.906C67.0386 171.926 65.327 172.975 64.247 175.053L59.0816 184.861C57.8794 187.122 58.5416 188.09 61.0683 187.764L78.6124 185.472C80.3241 185.248 80.6195 184.474 79.4988 183.15Z" fill="#29251C" fill-opacity="0.996"/>
</svg>
